<?xml version="1.0" standalone="no"?>
<!DOCTYPE svg PUBLIC "-//W3C//DTD SVG 20010904//EN"
 "http://www.w3.org/TR/2001/REC-SVG-20010904/DTD/svg10.dtd">
<svg version="1.0" xmlns="http://www.w3.org/2000/svg"
 width="84.000000pt" height="84.000000pt" viewBox="0 0 84.000000 84.000000"
 preserveAspectRatio="xMidYMid meet">
<metadata>
Created by potrace 1.14, written by Peter Selinger 2001-2017
</metadata>
<g transform="translate(0.000000,84.000000) scale(0.100000,-0.100000)"
fill="#000000" stroke="none">
<path d="M390 630 c-19 -11 -41 -19 -48 -20 -34 -1 -74 -45 -108 -118 l-35
-77 21 -80 c12 -44 24 -86 26 -93 2 -9 51 -12 198 -12 l196 0 20 40 c28 55 26
118 -5 161 -13 19 -34 54 -46 79 -28 57 -93 117 -139 130 -43 12 -38 13 -80
-10z"/>
</g>
</svg>
